<svg width="16" height="12" viewBox="0 0 16 12" fill="none" xmlns="http://www.w3.org/2000/svg">
<path fill-rule="evenodd" clip-rule="evenodd" d="M10.6785 4.35254C10.8842 3.94614 11 3.4866 11 3C11 1.34315 9.65685 0 8 0C6.34315 0 5 1.34315 5 3C5 3.4866 5.11585 3.94614 5.32147 4.35254C2.23647 5.32706 0 8.21188 0 11.619C0 11.8294 0.170559 12 0.380953 12H15.619C15.8294 12 16 11.8294 16 11.619C16 8.21188 13.7635 5.32706 10.6785 4.35254ZM9 3C9 3.55228 8.55228 4 8 4C7.44772 4 7 3.55228 7 3C7 2.44772 7.44772 2 8 2C8.55228 2 9 2.44772 9 3Z" fill="#504F4F"/>
</svg>
